<svg height="480pt" viewBox="-8 0 480 480" width="480pt" xmlns="http://www.w3.org/2000/svg" xmlns:xlink="http://www.w3.org/1999/xlink">
	<linearGradient id="a" gradientUnits="userSpaceOnUse" x1="29.032119" x2="434.968119" y1="472.352" y2="66.424">
		<stop offset="0" stop-color="#6ba3ff"/>
		<stop offset="1" stop-color="#a163f5"/>
	</linearGradient>
	<path d="m304 376c0 4.417969-3.582031 8-8 8h-128c-4.417969 0-8-3.582031-8-8s3.582031-8 8-8h128c4.417969 0 8 3.582031 8 8zm-8 24h-128c-4.417969 0-8 3.582031-8 8s3.582031 8 8 8h128c4.417969 0 8-3.582031 8-8s-3.582031-8-8-8zm0 32h-128c-4.417969 0-8 3.582031-8 8s3.582031 8 8 8h128c4.417969 0 8-3.582031 8-8s-3.582031-8-8-8zm-216.230469-176.167969c-15.1875-11.558593-20.09375-32.234375-11.71875-49.378906 8.371094-17.148437 27.695313-25.996094 46.144531-21.128906 18.453126 4.867187 30.898438 22.09375 29.722657 41.140625s-15.640625 34.609375-34.550781 37.175781c-1.808594.242187-3.636719.363281-5.464844.367187-8.722656 0-17.203125-2.875-24.132813-8.175781zm.445313-28.617187c1.71875 12.714844 13.136718 21.828125 25.917968 20.691406 12.777344-1.140625 22.402344-12.128906 21.84375-24.949219-.558593-12.816406-11.097656-22.929687-23.929687-22.957031-1.09375.003906-2.1875.078125-3.269531.222656-13.132813 1.78125-22.335938 13.867188-20.5625 27zm207.785156-11.214844h-64v16h64zm64 0h-16v16h16zm-32 0h-16v16h16zm64 0h-16v16h16zm80 80v144c0 4.417969-3.582031 8-8 8h-120v24c0 4.417969-3.582031 8-8 8h-192c-4.417969 0-8-3.582031-8-8v-24h-120c-4.417969 0-8-3.582031-8-8v-144c-.015625-3.046875 1.699219-5.839844 4.425781-7.199219l27.574219-13.746093v-195.054688c.027344-22.082031 17.917969-39.972656 40-40h56v-32c0-4.417969 3.582031-8 8-8h192c4.417969 0 8 3.582031 8 8v32h56c22.082031.027344 39.972656 17.917969 40 40v195.054688l27.574219 13.746093c2.726562 1.359375 4.441406 4.152344 4.425781 7.199219zm-48-96h-208c-13.253906 0-24 10.746094-24 24s10.746094 24 24 24h208zm-272-88h176v-96h-176zm-96 8c0 13.253906 10.746094 24 24 24h320c13.253906 0 24-10.746094 24-24v-40c0-13.253906-10.746094-24-24-24h-56v56h48v16h-304v-16h48v-56h-56c-13.253906 0-24 10.746094-24 24zm-32 312h16v-139.054688l-16 8zm32 0h32v-112c0-17.671875 14.328125-32 32-32h240c17.671875 0 32 14.328125 32 32v112h32v-168h-208c-22.089844 0-40-17.910156-40-40s17.910156-40 40-40h208v-32.207031c-6.882812 5.292969-15.316406 8.175781-24 8.207031h-320c-8.683594-.03125-17.117188-2.914062-24-8.207031zm272-80h-176v112h176zm48 80v-112c0-8.835938-7.164062-16-16-16h-240c-8.835938 0-16 7.164062-16 16v112h32v-80h-16v-16h240v16h-16v80zm80-131.054688-16-8v139.054688h16zm0 0" fill="url(#a)"/>
</svg>